<svg width="22" height="20" viewBox="0 0 22 20" fill="none" xmlns="http://www.w3.org/2000/svg">
<path d="M9.90921 0.782097C10.4068 0.506576 10.9903 0.429732 11.5422 0.567026C12.0942 0.704321 12.5737 1.04556 12.8842 1.5221L12.9672 1.6601L20.7262 15.6691C20.9094 16.0002 21.0061 16.3721 21.0075 16.7504C21.0088 17.1288 20.9147 17.5014 20.7339 17.8338C20.5531 18.1661 20.2913 18.4475 19.9729 18.6519C19.6545 18.8563 19.2897 18.9771 18.9122 19.0031L18.7582 19.0091H3.24221C2.86416 19.0093 2.49217 18.9142 2.16058 18.7326C1.829 18.551 1.5485 18.2889 1.345 17.9703C1.14151 17.6517 1.02157 17.2869 0.996258 16.9097C0.970952 16.5325 1.04109 16.155 1.20021 15.8121L1.27221 15.6691L9.03021 1.6601C9.235 1.29073 9.53961 0.986467 9.90921 0.782097ZM11.0002 14.0021C10.8664 13.9979 10.7332 14.0206 10.6083 14.0688C10.4835 14.1171 10.3696 14.19 10.2735 14.2831C10.1773 14.3762 10.1009 14.4878 10.0487 14.611C9.9965 14.7343 9.96961 14.8667 9.96961 15.0006C9.96961 15.1344 9.9965 15.2669 10.0487 15.3902C10.1009 15.5134 10.1773 15.6249 10.2735 15.7181C10.3696 15.8112 10.4835 15.8841 10.6083 15.9324C10.7332 15.9806 10.8664 16.0033 11.0002 15.9991C11.2596 15.9909 11.5055 15.8821 11.6861 15.6957C11.8666 15.5094 11.9676 15.2601 11.9676 15.0006C11.9676 14.7411 11.8666 14.4918 11.6861 14.3055C11.5055 14.1191 11.2596 14.0103 11.0002 14.0021ZM10.9982 5.9981C10.7531 5.99816 10.5166 6.08822 10.3335 6.25119C10.1505 6.41415 10.0336 6.63866 10.0052 6.8821L10.0002 6.9981V12.0001L10.0072 12.1171C10.0352 12.361 10.1518 12.5861 10.3351 12.7495C10.5183 12.913 10.7552 13.0033 11.0007 13.0033C11.2462 13.0033 11.4831 12.913 11.6664 12.7495C11.8496 12.5861 11.9663 12.361 11.9942 12.1171L12.0002 12.0001V6.9981L11.9932 6.8811C11.9645 6.63767 11.8475 6.41326 11.6642 6.25048C11.481 6.0877 11.2443 5.99788 10.9992 5.9981H10.9982Z" fill="#FF931E"/>
</svg>
